<?xml version="1.0" standalone="no"?>
<svg xmlns:xlink="http://www.w3.org/1999/xlink" id="wave" style="transform:rotate(0deg); transition: 0.3s" viewBox="0 0 1440 320" version="1.1" xmlns="http://www.w3.org/2000/svg"><defs><linearGradient id="sw-gradient-0" x1="0" x2="0" y1="1" y2="0"><stop stop-color="rgba(255, 255, 255, 1)" offset="0%"/><stop stop-color="rgba(255, 255, 255, 1)" offset="100%"/></linearGradient></defs><path style="transform:translate(0, 0px); opacity:1" fill="url(#sw-gradient-0)" d="M0,0L80,42.7C160,85,320,171,480,202.7C640,235,800,213,960,176C1120,139,1280,85,1440,96C1600,107,1760,181,1920,224C2080,267,2240,277,2400,277.3C2560,277,2720,267,2880,256C3040,245,3200,235,3360,224C3520,213,3680,203,3840,165.3C4000,128,4160,64,4320,42.7C4480,21,4640,43,4800,74.7C4960,107,5120,149,5280,165.3C5440,181,5600,171,5760,181.3C5920,192,6080,224,6240,202.7C6400,181,6560,107,6720,85.3C6880,64,7040,96,7200,128C7360,160,7520,192,7680,186.7C7840,181,8000,139,8160,128C8320,117,8480,139,8640,144C8800,149,8960,139,9120,160C9280,181,9440,235,9600,261.3C9760,288,9920,288,10080,240C10240,192,10400,96,10560,85.3C10720,75,10880,149,11040,176C11200,203,11360,181,11440,170.7L11520,160L11520,320L11440,320C11360,320,11200,320,11040,320C10880,320,10720,320,10560,320C10400,320,10240,320,10080,320C9920,320,9760,320,9600,320C9440,320,9280,320,9120,320C8960,320,8800,320,8640,320C8480,320,8320,320,8160,320C8000,320,7840,320,7680,320C7520,320,7360,320,7200,320C7040,320,6880,320,6720,320C6560,320,6400,320,6240,320C6080,320,5920,320,5760,320C5600,320,5440,320,5280,320C5120,320,4960,320,4800,320C4640,320,4480,320,4320,320C4160,320,4000,320,3840,320C3680,320,3520,320,3360,320C3200,320,3040,320,2880,320C2720,320,2560,320,2400,320C2240,320,2080,320,1920,320C1760,320,1600,320,1440,320C1280,320,1120,320,960,320C800,320,640,320,480,320C320,320,160,320,80,320L0,320Z"/></svg>